<?xml version="1.0" encoding="iso-8859-1"?>
<!-- Uploaded to: SVG Repo, www.svgrepo.com, Generator: SVG Repo Mixer Tools -->
<!DOCTYPE svg PUBLIC "-//W3C//DTD SVG 1.1//EN" "http://www.w3.org/Graphics/SVG/1.1/DTD/svg11.dtd">
<svg fill="#000000" height="800px" width="800px" version="1.1" id="Capa_1" xmlns="http://www.w3.org/2000/svg" xmlns:xlink="http://www.w3.org/1999/xlink" 
	 viewBox="0 0 297 297" xml:space="preserve">
<g>
	<path d="M195.683,186.184c-23.278,0-42.216,18.938-42.216,42.216c0,23.278,18.938,42.216,42.216,42.216
		c23.277,0,42.215-18.938,42.215-42.216C237.898,205.122,218.96,186.184,195.683,186.184z M212.072,237.836h-6.953v6.953
		c0,5.212-4.225,9.436-9.436,9.436c-5.212,0-9.437-4.225-9.437-9.436v-6.953h-6.953c-5.212,0-9.437-4.225-9.437-9.437
		s4.225-9.436,9.437-9.436h6.953v-6.953c0-5.212,4.225-9.437,9.437-9.437c5.212,0,9.436,4.225,9.436,9.437v6.953h6.953
		c5.212,0,9.437,4.225,9.437,9.436S217.284,237.836,212.072,237.836z"/>
	<path d="M7.766,250.385l76.84,17.181c5.367,1.2,9.759-2.318,9.759-7.818V54.521c0-5.5-4.392-10.981-9.759-12.182L12.101,26.128
		c-2.938-0.657-6.024,0.056-8.378,1.94C1.37,29.955,0,32.807,0,35.821v204.87C0,245.343,3.227,249.371,7.766,250.385z"/>
	<path d="M188.729,172.724V37.118c0-5.5-4.396-9.04-9.769-7.868l-60.92,13.297c-5.373,1.172-9.77,6.632-9.77,12.132v205.204
		c0,5.5,4.397,9.04,9.77,7.867l31.858-6.953c-6.501-9.159-10.338-20.335-10.338-32.397
		C139.56,199.809,161.054,176.161,188.729,172.724z"/>
	<path d="M289.233,46.615l-76.839-17.181c-5.367-1.2-9.759,2.318-9.759,7.818v135.471c27.675,3.438,49.169,27.085,49.169,55.676
		c0,12.2-3.926,23.494-10.564,32.712l43.658,9.761c0.719,0.161,1.445,0.239,2.168,0.239c2.235,0,4.432-0.755,6.21-2.18
		c2.353-1.886,3.723-4.738,3.723-7.753V56.309C297,51.657,293.772,47.63,289.233,46.615z"/>
</g>
</svg>