<?xml version="1.0" encoding="iso-8859-1"?>
<!-- Uploaded to: SVG Repo, www.svgrepo.com, Generator: SVG Repo Mixer Tools -->
<svg height="800px" width="800px" version="1.1" id="Layer_1" xmlns="http://www.w3.org/2000/svg" xmlns:xlink="http://www.w3.org/1999/xlink" 
	 viewBox="0 0 282.936 282.936" xml:space="preserve">
<g>
	<path style="fill:#F59D00;" d="M155.728,13.898L155.728,13.898c12.114-13.418,34.368-4.2,33.446,13.854l0,0
		c-0.581,11.369,8.797,20.747,20.166,20.166h0c18.054-0.922,27.272,21.332,13.854,33.446l0,0c-8.45,7.629-8.45,20.891,0,28.519h0
		c13.418,12.114,4.2,34.368-13.854,33.446h0c-11.369-0.581-20.747,8.797-20.166,20.166v0c0.922,18.054-21.332,27.272-33.446,13.854
		l0,0c-7.629-8.45-20.891-8.45-28.519,0l0,0c-12.114,13.418-34.368,4.2-33.446-13.854v0c0.581-11.369-8.797-20.747-20.166-20.166h0
		c-18.054,0.922-27.272-21.332-13.854-33.446h0c8.45-7.629,8.45-20.891,0-28.519l0,0c-13.418-12.114-4.2-34.368,13.854-33.446h0
		c11.369,0.581,20.747-8.797,20.166-20.166l0,0C92.84,9.698,115.095,0.48,127.209,13.898l0,0
		C134.837,22.348,148.099,22.348,155.728,13.898z"/>
	<path style="fill:#FFD155;" d="M197.919,146.389c-5.533,3.592-9.111,9.954-8.745,17.107v0
		c0.922,18.054-21.332,27.272-33.446,13.854l0,0c-1.981-2.194-4.345-3.805-6.888-4.86l67.474,102.948l10.718-37.75l37.75,10.718
		L197.919,146.389z"/>
	<path style="fill:#FFD155;" d="M127.209,177.349L127.209,177.349c-12.114,13.418-34.368,4.2-33.446-13.854v0
		c0.365-7.152-3.212-13.514-8.745-17.107L18.155,248.405l37.75-10.718l10.718,37.75l67.474-102.948
		C131.554,173.544,129.189,175.155,127.209,177.349z"/>
	<circle style="fill:#FFD155;" cx="141.468" cy="95.624" r="48.528"/>
	<g>
		<path style="fill:#F59D00;" d="M141.468,75.546l-20.5,17.84v22.316c4.52,0,36.152,0,41,0V93.386L141.468,75.546z"/>
		<g>
			<path style="fill:#E87E04;" d="M271.054,244.293l-61.257-93.463c24.635,0.522,36.81-29.915,18.422-46.514
				c-5.163-4.662-5.156-12.731,0.001-17.386c18.644-16.833,5.84-47.784-19.263-46.503c-6.894,0.363-12.649-5.314-12.293-12.294
				C197.946,3.032,166.99-9.77,150.162,8.872c0,0,0,0-0.001,0c-4.652,5.153-12.72,5.166-17.386,0
				C115.937-9.78,84.991,3.048,86.272,28.134c0.353,6.927-5.327,12.639-12.293,12.293c-25.083-1.292-37.913,29.665-19.262,46.503
				c5.153,4.653,5.166,12.721,0,17.386c-18.367,16.58-6.243,47.038,18.422,46.514l-61.257,93.462
				c-3.8,5.798,1.663,13.213,8.321,11.326l30.535-8.669l8.67,30.536c1.754,6.178,9.978,7.419,13.487,2.063l66.041-100.764
				c1.673-0.363,3.386-0.364,5.061,0l66.042,100.764c3.511,5.36,11.73,4.129,13.487-2.063l8.67-30.536l30.535,8.669
				C269.391,257.509,274.854,250.09,271.054,244.293z M64.768,115.45c11.716-10.576,11.762-29.035,0.001-39.653
				c-8.161-7.368-2.592-20.942,8.444-20.389c15.835,0.798,28.844-12.273,28.039-28.039c-0.562-11.007,13.008-16.625,20.389-8.446
				c10.578,11.715,29.035,11.761,39.654,0h-0.001c7.386-8.181,20.951-2.558,20.39,8.445c-0.805,15.756,12.198,28.842,28.039,28.04
				c6.066-0.3,9.888,3.522,11.417,7.214c1.528,3.691,1.551,9.091-2.972,13.175c-11.717,10.577-11.762,29.036,0,39.653
				c8.155,7.363,2.6,20.941-8.445,20.389c-15.738-0.791-28.848,12.174-28.039,28.039c0.563,11.036-13.007,16.624-20.389,8.445
				c-10.521-11.657-28.983-11.818-39.653,0c-7.202,7.974-20.067,2.818-20.4-7.331c-0.043-1.314,1.298-12.288-7.777-21.365
				c-5.141-5.14-12.474-8.183-20.251-7.789C62.2,136.394,56.592,122.833,64.768,115.45z M69.353,257.591l-6.233-21.953
				c-1.131-3.984-5.278-6.298-9.264-5.167l-18.405,5.226l50.285-76.723c0.449,1.425,0.601,2.855,0.536,4.139
				c-0.811,15.883,11.824,27.99,26.57,28.122L69.353,257.591z M229.081,230.472c-3.986-1.131-8.133,1.181-9.264,5.167l-6.233,21.953
				l-43.49-66.355c4.971,0,10.767-1.654,15.614-5.132c13.227-9.492,10.292-22.976,11.403-26.85c0.027-0.094,0.061-0.186,0.091-0.279
				l50.285,76.723L229.081,230.472z"/>
			<path style="fill:#E87E04;" d="M141.468,151.651c30.894,0,56.027-25.134,56.027-56.028c0-30.894-25.134-56.028-56.027-56.028
				S85.441,64.73,85.441,95.624C85.441,126.518,110.575,151.651,141.468,151.651z M141.468,54.596
				c22.623,0,41.027,18.405,41.027,41.028c0,22.623-18.404,41.028-41.027,41.028s-41.027-18.405-41.027-41.028
				C100.441,73.001,118.845,54.596,141.468,54.596z"/>
			<path style="fill:#E87E04;" d="M120.968,123.202h41c4.143,0,7.5-3.358,7.5-7.5V93.386c0-2.17-0.939-4.233-2.576-5.658
				l-20.5-17.84c-2.824-2.456-7.023-2.456-9.848,0l-20.5,17.84c-1.637,1.424-2.576,3.488-2.576,5.658v22.316
				C113.468,119.844,116.826,123.202,120.968,123.202z M128.468,96.801l13-11.313l13,11.313v11.4h-26V96.801z"/>
		</g>
	</g>
</g>
</svg>